# xmcd
#
# Track frame offsets:
# 150
# 5067
# 20970
# 39435
# 54115
# 70722
# 79042
# 96367
# 118065
# 133665
# 150525
# 168417
# 183677
# 187175
# 208572
# 227902
# 243865
# 254590
#
# Disc length: 3788 seconds
#
#
# Revision: 1
# Processed by: cddbd v1.5.2PL0 Copyright (c) Steve Scherf et al.
# Submitted via: FreeRIP 2.95 
#
DISCID=fb0eca12
DTITLE=Y.D.G - 2nd - tyrone yang a.k,a madman
DYEAR=2003
DGENRE=Hip-Hop
TTITLE0=Y.D.G 2nd - 01. Intro
TTITLE1=Y.D.G 2nd - 02. Chill (ft. Bizzy)
TTITLE2=Y.D.G 2nd - 03. 작업실에
TTITLE3=Y.D.G 2nd - 04. Tyrone Yang
TTITLE4=Y.D.G 2nd - 05. kids in da street
TTITLE5=Y.D.G 2nd - 06. Hot Box Station (skit)
TTITLE6=Y.D.G 2nd - 07. 착하게 살어 (왕잘난)
TTITLE7=Y.D.G 2nd - 08. 움직여
TTITLE8=Y.D.G 2nd - 09. Ho! (ft. I kyne)
TTITLE9=Y.D.G 2nd - 10. You Sir
TTITLE10=Y.D.G 2nd - 11. 청춘 (ft. NaNa)
TTITLE11=Y.D.G 2nd - 12. 다시 일어나 (ft. Tiger JK from Drunekn Tiger, I Kyne)
TTITLE12=Y.D.G 2nd - 13. Skit
TTITLE13=Y.D.G 2nd - 14. 선문답 2 (ft. SEAN 2 SLOW)
TTITLE14=Y.D.G 2nd - 15. 콧구멍스 (ft. Bizzy)
TTITLE15=Y.D.G 2nd - 16. M and M (Music and Mic) (ft. I Kyne)
TTITLE16=Y.D.G 2nd - 17. skit
TTITLE17=Y.D.G 2nd - 18. 청춘··· (Bonus track) (ft. 이현우)
EXTD=
EXTT0=
EXTT1=
EXTT2=
EXTT3=
EXTT4=
EXTT5=
EXTT6=
EXTT7=
EXTT8=
EXTT9=
EXTT10=
EXTT11=
EXTT12=
EXTT13=
EXTT14=
EXTT15=
EXTT16=
EXTT17=
PLAYORDER=
